<?xml version="1.0" encoding="utf-8"?>
<!-- Generator: Adobe Illustrator 19.0.0, SVG Export Plug-In . SVG Version: 6.00 Build 0)  -->
<svg version="1.1" id="Layer_1" xmlns="http://www.w3.org/2000/svg" xmlns:xlink="http://www.w3.org/1999/xlink" x="0px" y="0px"
	 viewBox="0 0 400 402.7" style="enable-background:new 0 0 400 402.7;" xml:space="preserve">
<g id="XMLID_4_">
	<path id="XMLID_11_" d="M200.3,378.2c-56.2,0-106.4-26.1-139.1-66.8l-6.6,24.9c36.5,38.9,88.3,63.2,145.8,63.2
		c57.5,0,109.3-24.3,145.8-63.2l-6.6-24.9C306.7,352.1,256.5,378.2,200.3,378.2z"/>
	<path id="XMLID_15_" d="M400.2,199.7c0-110.4-89.5-199.9-199.9-199.9C90-0.2,0.5,89.3,0.5,199.7c0,44.2,14.4,85,38.7,118.1
		L28,402.7l59.5-222.4l112.9,109.9l112.9-109.9l59.5,222.4L361.4,318C385.7,284.8,400.2,244,400.2,199.7z M200.3,257.1L68.5,96.3
		L43.5,285c-13.9-25.4-21.8-54.4-21.8-85.3c0-98.5,80.1-178.6,178.6-178.6c98.5,0,178.6,80.1,178.6,178.6c0,31-8,60.2-21.9,85.7
		l-25.4-189L200.3,257.1z"/>
</g>
</svg>
