<svg id="General" xmlns="http://www.w3.org/2000/svg" viewBox="0 0 44 36"><defs><style>.cls-1{fill:#0b80e0;}</style></defs><title>ico-people</title><g id="Users_2_2x.png" data-name="Users 2@2x.png"><path class="cls-1" d="M272.83,890.92a5.27,5.27,0,0,0,3.66-5.33,7.72,7.72,0,0,0-1.54-5.17l-0.07-.09,0,0a3.41,3.41,0,0,1,.1-1.78,2.13,2.13,0,0,0-.14-1.35c-0.41-.89-1.16-2.54-0.63-3.78,0.88-2.13,1.25-2.29,2.23-2.72l0.28-.15A5.31,5.31,0,0,1,279,870a2.76,2.76,0,0,1,1.24.26,7.39,7.39,0,0,1,.33-1c0.12-.3.25-0.57,0.38-0.84a4.91,4.91,0,0,0-2-.38,7.1,7.1,0,0,0-3.36.85c-1.6.7-2.27,1.34-3.28,3.79-0.88,2.06.17,4.29,0.68,5.42-0.63,2.57.24,3.45,0.24,3.45a5.76,5.76,0,0,1,1.23,4.08,3.23,3.23,0,0,1-2.24,3.42,5.76,5.76,0,0,0-4.25,6,1,1,0,0,0,1,1h4.46a8.31,8.31,0,0,1,.94-2h-4.33A3.66,3.66,0,0,1,272.83,890.92ZM307.75,889a3.23,3.23,0,0,1-2.24-3.42,5.76,5.76,0,0,1,1.23-4.08s0.87-.88.24-3.45c0.51-1.12,1.56-3.36.68-5.42-1-2.45-1.68-3.1-3.28-3.79A7.1,7.1,0,0,0,301,868a4.87,4.87,0,0,0-2,.41,14.85,14.85,0,0,1,.62,1.92l0.08,0A2.73,2.73,0,0,1,301,870a5.31,5.31,0,0,1,2.29.53l0.28,0.15c1,0.43,1.35.59,2.23,2.72,0.53,1.24-.22,2.9-0.63,3.78a2.13,2.13,0,0,0-.14,1.35,3.41,3.41,0,0,1,.1,1.78l0,0-0.07.09a7.73,7.73,0,0,0-1.54,5.17,5.27,5.27,0,0,0,3.66,5.33,3.66,3.66,0,0,1,2.76,3.08H305.6a8.33,8.33,0,0,1,.94,2H311a1,1,0,0,0,1-1A5.76,5.76,0,0,0,307.75,889Zm-9.78,2.2a4.77,4.77,0,0,1-3.58-4.6,7.11,7.11,0,0,1,2-5.25s1.17-1,.39-4.33c1.3-1.81,1.73-4.76.13-8.4-0.89-2.13-1.68-3.29-2.87-4a5.74,5.74,0,0,0-2.85-.68,8.69,8.69,0,0,0-4.21,1.09c-2,.9-3.35,1.73-4.61,4.88-1.09,2.65.21,5.52,0.85,7-0.78,3.3.3,4.44,0.3,4.44a7.11,7.11,0,0,1,2,5.25,4.77,4.77,0,0,1-3.58,4.6c-2.28.82-7,2.39-7,7.79a1,1,0,0,0,1,1h28a1,1,0,0,0,1-1C305,893.6,300.25,892,298,891.21ZM277.08,898c0.47-2.82,2.93-3.94,5.45-4.85l0.08,0a6.72,6.72,0,0,0,5-6.51,8.65,8.65,0,0,0-2.18-6.11l-0.29-.37a4.49,4.49,0,0,1,.07-2.74,1.67,1.67,0,0,0-.14-1.32c-0.55-1.23-1.56-3.51-.8-5.36,1-2.55,1.93-3.06,3.57-3.8l0.28-.15a6.8,6.8,0,0,1,3.11-.76,3.74,3.74,0,0,1,1.86.42c0.59,0.34,1.16,1,2,3,1.61,3.66.59,5.71,0.08,6.42a2,2,0,0,0-.32,1.63,4.14,4.14,0,0,1,.07,2.53l-0.38.47a8.65,8.65,0,0,0-2.18,6.11,6.72,6.72,0,0,0,5,6.51l0.08,0c2.52,0.9,5,2,5.45,4.85H277.08Z" transform="translate(-268 -864)"/></g></svg>