<svg id="Electronics" xmlns="http://www.w3.org/2000/svg" viewBox="0 0 44 44"><defs><style>.cls-1{fill:#0b80e0;}</style></defs><title>ico-guide</title><g id="Desktop_Download_2x.png" data-name="Desktop Download@2x.png"><path class="cls-1" d="M210,1298a1,1,0,0,0-.71.29l-2.29,2.29V1289h0a1,1,0,0,0-2,0v11.59l-2.29-2.29a1,1,0,1,0-1.41,1.41l4,4a1,1,0,0,0,1.41,0l4-4A1,1,0,0,0,210,1298Zm14-18H188a4,4,0,0,0-4,4v30a4,4,0,0,0,4,4h14v4h-3a1,1,0,0,0,0,2h14a1,1,0,0,0,0-2h-3v-4h14a4,4,0,0,0,4-4v-30A4,4,0,0,0,224,1280Zm-16,42h-4v-4h4v4Zm18-8a2,2,0,0,1-2,2H188a2,2,0,0,1-2-2v-2h40v2Zm0-4H186v-26a2,2,0,0,1,2-2h36a2,2,0,0,1,2,2v26Z" transform="translate(-184 -1280)"/></g></svg>