<svg id="General" xmlns="http://www.w3.org/2000/svg" viewBox="0 0 44 44"><defs><style>.cls-1{fill:#0b80e0;}</style></defs><title>ico-support</title><g id="Wrench_2x.png" data-name="Wrench@2x.png"><path class="cls-1" d="M394.39,868.71l-0.84.84h0l-5,5h0a5,5,0,0,1-7.06-7.06L380,866.06a7,7,0,1,0,9.89,9.89h0l3.72-3.72c0.75,2.76.4,5.42-1.27,7.12L387,884.85a4,4,0,0,1-2.77,1.16,16.14,16.14,0,0,1-6.81-2.35v0a0.93,0.93,0,0,0-1.33.27l0,0-15.27,16.91a4,4,0,0,1-5.66-5.66L372,880l0,0a1,1,0,0,0,.44-0.81,1,1,0,0,0-.2-0.57h0c-2.89-3.85-3-6.71-.5-9.41l5.34-5.47a6,6,0,0,1,4.37-1.68h0a9.33,9.33,0,0,1,2.32.31L380,866l1.41,1.41,5-5h0l0.88-.88a12.71,12.71,0,0,0-5.86-1.58h0a7.86,7.86,0,0,0-5.76,2.26l-5.36,5.49c-3.53,3.8-2.59,7.7-.2,11.23l-16.37,14.79a6,6,0,0,0,8.48,8.49l14.9-16.47a17.41,17.41,0,0,0,7.12,2.23,5.87,5.87,0,0,0,4.16-1.74l5.36-5.49C396.58,877.91,396.66,873.1,394.39,868.71Zm-37.09,28.58A1,1,0,1,0,358,897,1,1,0,0,0,357.29,897.29Z" transform="translate(-352 -860)"/></g></svg>